<svg xmlns="http://www.w3.org/2000/svg" version="1.1" xmlns:xlink="http://www.w3.org/1999/xlink" xmlns:svgjs="http://svgjs.dev/svgjs" width="1500" height="1500" viewBox="0 0 1000 1000"><rect width="1000" height="1000" fill="#ffffff"></rect><g transform="matrix(0.7,0,0,0.7,149.57575757575756,445.8292683744916)"><svg viewBox="0 0 396 61" data-background-color="#ffffff" preserveAspectRatio="xMidYMid meet" height="154" width="1000" xmlns="http://www.w3.org/2000/svg" xmlns:xlink="http://www.w3.org/1999/xlink"><g id="tight-bounds" transform="matrix(1,0,0,1,0.2400000000000091,0.15319693094630793)"><svg viewBox="0 0 395.52 60.693606138107405" height="60.693606138107405" width="395.52"><g><svg viewBox="0 0 395.52 60.693606138107405" height="60.693606138107405" width="395.52"><g><svg viewBox="0 0 395.52 60.693606138107405" height="60.693606138107405" width="395.52"><g><svg viewBox="0 0 395.52 60.693606138107405" height="60.693606138107405" width="395.52"><g><svg viewBox="0 0 395.52 60.693606138107405" height="60.693606138107405" width="395.52"><g transform="matrix(1,0,0,1,0,0)"><svg width="395.52" viewBox="4.25 -35.75 235.8800048828125 36" height="60.693606138107405" data-palette-color="#ebbf32"><g class="undefined-text-0" data-fill-palette-color="primary" id="text-0"><path d="M8.75 0L4.25 0 4.25-35.5 8.75-35.5 8.75 0ZM52.45 0L47.95 0 47.95-27.1 36.25-6.25 33.5-6.25 21.75-27.1 21.75 0 17.25 0 17.25-35.5 22-35.5 34.85-12.45 47.75-35.5 52.45-35.5 52.45 0ZM57.2 0L71.75-35.5 75.55-35.5 90.05 0 85.25 0 81.05-10.4 66.15-10.4 62 0 57.2 0ZM67.05-13.9L80.05-13.9 73.65-30.3 67.05-13.9ZM109.04 0.25L109.04 0.25Q105.54 0.25 102.52-1.28 99.49-2.8 97.24-5.38 94.99-7.95 93.74-11.18 92.49-14.4 92.49-17.85L92.49-17.85Q92.49-21.45 93.74-24.68 94.99-27.9 97.22-30.4 99.44-32.9 102.47-34.33 105.49-35.75 109.04-35.75L109.04-35.75Q114.19-35.75 117.54-33.6 120.89-31.45 122.59-28L122.59-28 119.14-25.6Q117.59-28.7 114.89-30.2 112.19-31.7 108.94-31.7L108.94-31.7Q106.24-31.7 104.04-30.55 101.84-29.4 100.27-27.43 98.69-25.45 97.87-22.95 97.04-20.45 97.04-17.75L97.04-17.75Q97.04-14.9 97.97-12.38 98.89-9.85 100.59-7.93 102.29-6 104.54-4.9 106.79-3.8 109.39-3.8L109.39-3.8Q112.44-3.8 115.19-5.35 117.94-6.9 120.39-10.1L120.39-10.1 120.39-5.45Q115.59 0.25 109.04 0.25ZM119.84 0L119.84-14.3 112.19-14.3 112.19-17.7 123.64-17.7 123.64 0 119.84 0ZM134.99 0L130.49 0 130.49-35.5 134.99-35.5 134.99 0ZM169.39 0L147.99-27.2 147.99 0 143.49 0 143.49-35.5 147.29-35.5 168.99-7.75 168.99-35.45 173.49-35.45 173.49 0 169.39 0ZM178.24 0L192.79-35.5 196.59-35.5 211.09 0 206.29 0 202.09-10.4 187.19-10.4 183.04 0 178.24 0ZM188.09-13.9L201.09-13.9 194.69-30.3 188.09-13.9ZM240.13 0L215.83 0 215.83-35.5 220.33-35.5 220.33-4 240.13-4 240.13 0Z" fill="#ebbf32" data-fill-palette-color="primary"></path></g></svg></g></svg></g></svg></g></svg></g><g></g></svg></g><defs></defs></svg><rect width="395.52" height="60.693606138107405" fill="none" stroke="none" visibility="hidden"></rect></g></svg></g></svg>